<svg width="217" height="52" viewBox="0 0 217 52" fill="none" xmlns="http://www.w3.org/2000/svg">
<g clip-path="url(#clip0_5_24)">
<path fill-rule="evenodd" clip-rule="evenodd" d="M67.5117 35.2942C65.5354 31.68 62.1698 30.2429 58.2529 30.2429C52.5601 30.2429 48.0273 34.2882 48.0273 41.1286C48.0273 47.9691 52.2879 52.0072 58.4462 52.0072C62.399 52.0072 65.7645 49.83 67.6263 46.5248L63.2869 44.3117C62.3202 46.647 60.8451 47.3439 58.9904 47.3439C55.7752 47.3439 54.3073 44.6638 54.3073 41.1286C54.3073 37.5935 55.5461 34.9062 58.9904 34.9062C59.9213 34.9062 61.776 35.4091 62.8644 37.7444L67.5117 35.2942Z" fill="#231F20"/>
<path fill-rule="evenodd" clip-rule="evenodd" d="M78.5895 34.9062C82.0338 34.9062 83.5089 37.5863 83.5089 40.8915C83.5089 44.6638 82.0338 47.3439 78.5895 47.3439C75.1452 47.3439 73.67 44.6638 73.67 41.1286C73.67 37.5935 75.1452 34.9062 78.5895 34.9062ZM78.5895 30.2429C72.1591 30.2429 67.6263 34.1661 67.6263 41.1286C67.6263 48.0912 72.1591 52.0072 78.5895 52.0072C85.0199 52.0072 89.5526 48.084 89.5526 41.1286C89.5526 34.1733 85.0199 30.2429 78.5895 30.2429Z" fill="#231F20"/>
<path fill-rule="evenodd" clip-rule="evenodd" d="M90.7842 51.461H96.8279V38.5993C96.8279 36.7311 97.6013 35.1432 100.043 35.1432C102.485 35.1432 102.986 36.5012 102.986 38.5275V51.4682H109.03V38.7574C109.03 36.6593 110.075 35.1432 112.088 35.1432C114.372 35.1432 115.188 36.4653 115.188 39.3825V51.4682H121.232V35.6893C121.232 30.947 116.892 30.25 114.88 30.25C112.481 30.25 110.233 30.9901 108.257 33.0092C106.903 31.1841 105.156 30.25 102.793 30.25C100.931 30.25 98.3747 30.7961 96.8279 32.6212V30.7961H90.7842V51.4754V51.461Z" fill="#231F20"/>
<path fill-rule="evenodd" clip-rule="evenodd" d="M123.165 51.461H129.209V38.5993C129.209 36.7311 129.982 35.1432 132.424 35.1432C134.866 35.1432 135.367 36.5012 135.367 38.5275V51.4682H141.411V38.7574C141.411 36.6593 142.456 35.1432 144.469 35.1432C146.753 35.1432 147.569 36.4653 147.569 39.3825V51.4682H153.613V35.6893C153.613 30.947 149.273 30.25 147.261 30.25C144.862 30.25 142.614 30.9901 140.638 33.0092C139.284 31.1841 137.537 30.25 135.174 30.25C133.312 30.25 130.756 30.7961 129.209 32.6212V30.7961H123.165V51.4754V51.461Z" fill="#231F20"/>
<path fill-rule="evenodd" clip-rule="evenodd" d="M165.8 34.9062C169.245 34.9062 170.72 37.5863 170.72 40.8915C170.72 44.6638 169.245 47.3439 165.8 47.3439C162.356 47.3439 160.881 44.6638 160.881 41.1286C160.881 37.5935 162.356 34.9062 165.8 34.9062ZM165.8 30.2429C159.37 30.2429 154.837 34.1661 154.837 41.1286C154.837 48.0912 159.37 52.0072 165.8 52.0072C172.231 52.0072 176.764 48.084 176.764 41.1286C176.764 34.1733 172.231 30.2429 165.8 30.2429Z" fill="#231F20"/>
<path fill-rule="evenodd" clip-rule="evenodd" d="M178.389 51.4611H184.433V38.5994C184.433 36.7312 185.206 35.1433 187.648 35.1433C190.09 35.1433 190.591 36.5013 190.591 38.5276V51.4683H196.635V36.1923C196.635 33.0811 195.281 30.2429 190.398 30.2429C188.536 30.2429 185.98 30.789 184.433 32.6141V30.789H178.389V51.4683V51.4611Z" fill="#231F20"/>
<path fill-rule="evenodd" clip-rule="evenodd" d="M216.807 33.232C214.021 31.3638 210.878 30.2429 207.705 30.2429C203.523 30.2429 198.991 32.262 198.991 37.4713C198.991 44.8147 211.193 42.2496 211.193 45.4757C211.193 47.3439 208.908 47.5739 207.899 47.5739C205.149 47.5739 203.251 46.4458 201.39 44.6566L197.63 47.9188C200.652 50.7138 203.208 52 207.698 52C212.188 52 216.993 50.0528 216.993 44.6135C216.993 36.8821 204.791 39.7922 204.791 36.257C204.791 35.208 205.872 34.6619 207.383 34.6619C209.281 34.6619 211.88 35.4379 213.076 36.8749L216.792 33.2248L216.807 33.232Z" fill="#231F20"/>
<path fill-rule="evenodd" clip-rule="evenodd" d="M67.5117 11.5037C65.5354 7.88945 62.1698 6.45239 58.2529 6.45239C52.5601 6.45239 48.0273 10.4977 48.0273 17.3309C48.0273 24.1642 52.2879 28.2167 58.4462 28.2167C62.399 28.2167 65.7645 26.0395 67.6263 22.7343L63.2869 20.5212C62.3202 22.8564 60.8451 23.5534 58.9904 23.5534C55.7752 23.5534 54.3073 20.8733 54.3073 17.3381C54.3073 13.803 55.5461 11.1228 58.9904 11.1228C59.9213 11.1228 61.776 11.6258 62.8644 13.961L67.5117 11.5108V11.5037Z" fill="#231F20"/>
<path fill-rule="evenodd" clip-rule="evenodd" d="M68.9869 27.6706H75.0306V15.6999C75.0306 13.4078 76.4627 12.7826 80.0646 12.3587L80.7234 12.2797L80.6876 6.91943C78.5537 7.07751 76.3482 7.85352 75.0306 9.09658V6.99847H68.9869V27.6778V27.6706Z" fill="#231F20"/>
<path fill-rule="evenodd" clip-rule="evenodd" d="M101.246 18.5741C101.21 12.2007 98.6539 6.44531 91.1351 6.44531C84.8623 6.44531 81.0241 10.6415 81.0241 17.949C81.0241 23.7762 84.7405 28.2096 91.1351 28.2096C95.7466 28.2096 99.0334 26.3845 101.124 22.4973L96.5916 20.1261C94.8516 22.6122 93.8061 23.7762 91.5576 23.7762C89.6242 23.7762 87.1036 22.5332 87.0678 18.5669H101.246V18.5741ZM86.989 14.8449C87.2611 12.1217 89.3521 10.8786 91.0921 10.8786C92.8322 10.8786 95.0019 11.8127 95.1953 14.8449H86.9819H86.989Z" fill="#231F20"/>
<path fill-rule="evenodd" clip-rule="evenodd" d="M115.102 19.0411C115.102 22.1883 113.319 23.7834 110.956 23.7834C109.481 23.7834 108.128 23.0865 108.128 21.4482C108.128 19.81 109.524 19.192 111.035 18.7681L115.102 17.6041V19.0411ZM120.91 12.4307C120.874 7.76741 117.344 6.44531 111.73 6.44531C108.944 6.44531 103.437 6.99139 103.244 12.9336H109.051C109.359 10.8715 110.29 10.1745 112.231 10.1745C113.856 10.1745 115.095 10.8355 115.095 12.3876V14.0977L112.89 14.4066C106.302 15.3407 102.313 17.0867 102.313 22.0661C102.313 26.0324 105.256 28.2096 109.209 28.2096C111.379 28.2096 114.4 27.1605 115.403 25.5295H115.482C115.518 26.2264 115.639 26.9665 115.868 27.6707H121.447C120.945 26.3845 120.902 24.7966 120.902 23.3595V12.4378L120.91 12.4307Z" fill="#231F20"/>
<path fill-rule="evenodd" clip-rule="evenodd" d="M135.124 7.38648H131.522V1.40112H125.478V7.38648H122.535V11.1156H125.478V22.0014C125.478 24.9905 126.216 28.2167 131.364 28.2167C132.682 28.2167 134.465 28.0586 135.238 27.9867V23.2085C134.93 23.2444 134.078 23.3235 133.419 23.3235C132.331 23.3235 131.522 22.8923 131.522 21.2613V11.1156H135.124V7.38648Z" fill="#231F20"/>
<path fill-rule="evenodd" clip-rule="evenodd" d="M137.401 6.99848V27.6778H143.445V6.99848H137.401ZM143.445 4.66326V0H137.401V4.66326H143.445Z" fill="#231F20"/>
<path fill-rule="evenodd" clip-rule="evenodd" d="M151.572 27.6706H157.652L164.705 6.99854H158.274L154.708 21.6062H154.63L151.071 6.99854H144.597L151.572 27.6706Z" fill="#231F20"/>
<path fill-rule="evenodd" clip-rule="evenodd" d="M184.218 18.5741C184.182 12.2007 181.626 6.44531 174.107 6.44531C167.834 6.44531 163.996 10.6415 163.996 17.949C163.996 23.7762 167.712 28.2096 174.107 28.2096C178.719 28.2096 182.005 26.3845 184.103 22.4973L179.571 20.1261C177.831 22.6122 176.785 23.7762 174.537 23.7762C172.603 23.7762 170.083 22.5332 170.047 18.5669H184.225L184.218 18.5741ZM169.961 14.8449C170.233 12.1217 172.324 10.8786 174.064 10.8786C175.804 10.8786 177.974 11.8127 178.167 14.8449H169.954H169.961Z" fill="#231F20"/>
<path fill-rule="evenodd" clip-rule="evenodd" d="M22.628 6.10742C16.4125 6.10742 10.9417 8.4139 6.70964 12.7179C2.36305 17.144 0 22.8851 0 28.8776C0 34.8702 2.29861 40.5394 6.65236 44.908C11.0061 49.2767 16.6631 51.6478 22.628 51.6478C28.593 51.6478 34.3789 49.2767 38.8543 44.8505C43.0792 40.6687 45.3205 35.1217 45.3205 28.8776C45.3205 22.6336 43.0792 17.0866 38.7899 12.7826C34.4361 8.4139 28.8436 6.10742 22.628 6.10742ZM22.6925 10.2246C27.791 10.2246 32.3309 12.1574 35.8755 15.7142C39.3556 19.2062 41.2246 23.8264 41.2246 28.8776C41.2246 33.9289 39.42 38.4844 35.9399 41.9189C32.2736 45.5403 27.5475 47.4732 22.6996 47.4732C17.8518 47.4732 13.1901 45.5403 9.64556 41.9836C6.10098 38.4269 4.11028 33.7493 4.11028 28.8848C4.11028 24.0204 6.10098 19.2781 9.64556 15.6567C13.1257 12.1 17.6012 10.2318 22.6996 10.2318L22.6925 10.2246Z" fill="#231F20"/>
<path fill-rule="evenodd" clip-rule="evenodd" d="M22.3989 25.0909C21.1171 22.7485 18.9331 21.8145 16.391 21.8145C12.6961 21.8145 9.75299 24.4371 9.75299 28.8776C9.75299 33.3181 12.517 35.9407 16.5128 35.9407C19.0763 35.9407 21.2603 34.5252 22.4705 32.384L19.6563 30.947C19.0262 32.4631 18.0738 32.9157 16.8636 32.9157C14.7799 32.9157 13.8203 31.1769 13.8203 28.8776C13.8203 26.5783 14.6223 24.8395 16.8636 24.8395C17.4651 24.8395 18.6753 25.17 19.3771 26.6789L22.3918 25.0909H22.3989Z" fill="#231F20"/>
<path fill-rule="evenodd" clip-rule="evenodd" d="M35.4888 25.0909C34.207 22.7485 32.0229 21.8145 29.4809 21.8145C25.7859 21.8145 22.8428 24.4371 22.8428 28.8776C22.8428 33.3181 25.6069 35.9407 29.6026 35.9407C32.1662 35.9407 34.3502 34.5252 35.5604 32.384L32.7462 30.947C32.116 32.4631 31.1637 32.9157 29.9535 32.9157C27.8697 32.9157 26.9102 31.1769 26.9102 28.8776C26.9102 26.5783 27.7122 24.8395 29.9535 24.8395C30.555 24.8395 31.7652 25.17 32.4669 26.6789L35.4816 25.0909H35.4888Z" fill="#231F20"/>
</g>
<defs>
<clipPath id="clip0_5_24">
<rect width="217" height="52" fill="white"/>
</clipPath>
</defs>
</svg>
